# xmcd CD database file
#
# Track frame offsets:
#	150
#	15712
#	33765
#	48862
#	63970
#	79342
#	96677
#	112020
#	129985
#	144200
#
# Disc length: 2089 seconds
#
# Revision: 2
# Processed by: cddbd v1.4PL0 Copyright (c) Steve Scherf et al.
# Submitted via: CDex 1.40Release
#
DISCID=7f08270a
DTITLE=Bellamy Brothers - The Latest and The Greatest
DYEAR=1992
DGENRE=Country
TTITLE0=Cowboy Beat
TTITLE1=Old Hippie
TTITLE2=Can I Come on Home to You
TTITLE3=Redneck Girl
TTITLE4=I'd Lie to You for Your Love
TTITLE5=Hard Way to Make an Easy Livin'
TTITLE6=Kids of the Baby Boom
TTITLE7=She's Gone with the Wind
TTITLE8=If I Said You Had a Beautiful Body (Would You Hold It Against Me)
TTITLE9=Let Your Love Flow
EXTD=YEAR: 1992 ID3G: 2
EXTT0=
EXTT1=
EXTT2=
EXTT3=
EXTT4=
EXTT5=
EXTT6=
EXTT7=
EXTT8=
EXTT9=
PLAYORDER=
